<?xml version="1.0" standalone="no"?>
<!DOCTYPE svg PUBLIC "-//W3C//DTD SVG 20010904//EN"
 "http://www.w3.org/TR/2001/REC-SVG-20010904/DTD/svg10.dtd">
<svg version="1.0" xmlns="http://www.w3.org/2000/svg"
 width="70.000000pt" height="70.000000pt" viewBox="0 0 70.000000 70.000000"
 preserveAspectRatio="xMidYMid meet">
<metadata>
Created by potrace 1.11, written by Peter Selinger 2001-2013
</metadata>
<g transform="translate(0.000000,70.000000) scale(0.100000,-0.100000)"
fill="#000000" stroke="none">
<path d="M300 690 c0 -5 -7 -10 -15 -10 -8 0 -15 -5 -15 -11 0 -6 -6 -17 -14
-25 -8 -8 -19 -14 -25 -14 -6 0 -11 -5 -11 -11 0 -14 -25 -39 -39 -39 -6 0
-11 -5 -11 -11 0 -14 -25 -39 -39 -39 -6 0 -11 -7 -11 -15 0 -8 -4 -15 -10
-15 -6 0 -10 -73 -10 -200 l0 -200 60 0 c33 0 60 -4 60 -10 0 -5 7 -10 15 -10
8 0 15 -5 15 -11 0 -14 25 -39 39 -39 6 0 11 -7 11 -15 0 -11 12 -15 50 -15
29 0 50 5 50 11 0 14 25 39 39 39 6 0 11 5 11 11 0 26 30 39 89 39 l61 0 0
200 c0 171 -2 200 -15 200 -8 0 -15 5 -15 11 0 14 -25 39 -39 39 -6 0 -11 5
-11 11 0 14 -25 39 -39 39 -6 0 -11 5 -11 11 0 14 -25 39 -39 39 -6 0 -11 5
-11 11 0 23 -30 39 -74 39 -25 0 -46 -4 -46 -10z m0 -125 l0 -65 -65 0 c-51 0
-65 3 -65 15 0 8 5 15 11 15 14 0 39 25 39 39 0 6 5 11 11 11 14 0 39 25 39
39 0 6 7 11 15 11 12 0 15 -14 15 -65z m120 50 c0 -8 5 -15 11 -15 14 0 39
-25 39 -39 0 -6 5 -11 11 -11 6 0 17 -6 25 -14 27 -27 15 -36 -46 -36 l-60 0
0 65 c0 37 4 65 10 65 6 0 10 -7 10 -15z m130 -315 l0 -150 -61 0 c-65 0 -89
-13 -89 -49 0 -12 -6 -21 -15 -21 -8 0 -15 -7 -15 -15 0 -9 -9 -15 -25 -15
-16 0 -25 6 -25 15 0 8 -4 15 -10 15 -5 0 -10 11 -10 25 0 16 -6 25 -15 25 -8
0 -15 5 -15 10 0 6 -27 10 -60 10 l-60 0 0 150 0 150 200 0 200 0 0 -150z"/>
</g>
</svg>
